<svg xmlns="http://www.w3.org/2000/svg" width="72.24" height="72.24" viewBox="0 0 72.24 72.24">
  <g id="Group_1" data-name="Group 1" transform="translate(-333.91 -963.19)">
    <g id="Circle-1" transform="translate(336.91 966.19)" fill="#fff" stroke="#fed136" stroke-linejoin="round" stroke-width="3">
      <circle cx="33.12" cy="33.12" r="33.12" stroke="none"/>
      <circle cx="33.12" cy="33.12" r="34.62" fill="none"/>
    </g>
    <path id="Icon-Basket" d="M385.277,1018.358h-30.5l-1.192-20.648h32.882l-1.192,20.647h0Zm-8.366-13.773v8.259a1.375,1.375,0,1,0,2.75,0v-8.259a1.375,1.375,0,1,0-2.75,0Zm-8.26,0v8.259a1.375,1.375,0,0,0,2.75,0v-8.259a1.375,1.375,0,1,0-2.75,0Zm-8.26,0v8.259a1.375,1.375,0,0,0,2.75,0v-8.259a1.375,1.375,0,1,0-2.75,0Zm-6.2-8.256a3.44,3.44,0,1,1,0-6.88h3.89a2.758,2.758,0,0,1,.271-.648l4.13-7.153a2.753,2.753,0,1,1,4.769,2.753l-2.915,5.048h11.385l-2.915-5.048a2.753,2.753,0,1,1,4.769-2.753l4.13,7.153a2.761,2.761,0,0,1,.271.648h3.883a3.44,3.44,0,1,1,0,6.88Z" fill="#fed136"/>
  </g>
</svg>
